# xmcd
#
# Track frame offsets: 
#        150
#        11103
#        27997
#        38182
#        51262
#        66356
#        76445
#        89373
#        108862
#        121105
#        132472
#        145694
#        158245
#        171119
#        184868
#        201936
#        213594
#        232964
#        245926
#        260393
#
# Disc length: 3599 seconds
#
# Revision: 1
# Processed by: cddbd v1.5.2PL0 Copyright (c) Steve Scherf et al.
# Submitted via: ExactAudioCopy v1.1
#
DISCID=210e0d14
DTITLE=Ray Charles - The Very Best Of - CD2
DYEAR=1900
DGENRE=
TTITLE0=Deep In The Heart Of Texas
TTITLE1=Don't Let The Sun Catch You Cryin'
TTITLE2=I'm Movin' On
TTITLE3=Don't You Know
TTITLE4=Drown In My Own Tears
TTITLE5=Yes Indeed!
TTITLE6=Let The Good Times Roll
TTITLE7=Talkin' Bout You
TTITLE8=It Should Have Been Me
TTITLE9=She's On The Ball
TTITLE10=Sentimental Journey
TTITLE11=Mr. Charles Blues
TTITLE12=I Want A Little Girl
TTITLE13=New York's My Home
TTITLE14=In A Little Spanish Town
TTITLE15=See See Rider (See What You Have Done)
TTITLE16=Sherry
TTITLE17=I Had A Dream
TTITLE18=Losing Hand
TTITLE19=I Want To Know
EXTD=
EXTT0=
EXTT1=
EXTT2=
EXTT3=
EXTT4=
EXTT5=
EXTT6=
EXTT7=
EXTT8=
EXTT9=
EXTT10=
EXTT11=
EXTT12=
EXTT13=
EXTT14=
EXTT15=
EXTT16=
EXTT17=
EXTT18=
EXTT19=
PLAYORDER=
